<svg width="63" height="30" viewBox="0 0 63 30" fill="none" xmlns="http://www.w3.org/2000/svg">
<path d="M17.1617 14.6731L17.6123 14.7719L16.0287 19.9298H1.69385V19.4118H2.39077C3.17332 19.4118 3.73322 19.1508 4.07048 18.6275C4.26151 18.3286 4.35768 17.6375 4.35768 16.5529V4.28971C4.35768 3.10369 4.22989 2.3599 3.97563 2.06103C3.62124 1.64991 3.09295 1.44435 2.39208 1.44435H1.69517V0.926392H10.0779V1.44435C9.09514 1.43488 8.40613 1.52819 8.00958 1.72428C7.61304 1.92037 7.34296 2.16786 7.19673 2.46673C7.0505 2.76561 6.97804 3.481 6.97804 4.61158V16.5529C6.97804 17.3292 7.0505 17.8607 7.19673 18.1501C7.30608 18.3462 7.47471 18.4909 7.7013 18.5842C7.92922 18.6775 8.63931 18.7248 9.83158 18.7248H11.1833C12.6034 18.7248 13.5994 18.618 14.1738 18.403C14.7469 18.1879 15.2699 17.8079 15.7442 17.2602C16.2171 16.7139 16.6901 15.8511 17.1644 14.6745L17.1617 14.6731Z" fill="white"/>
<path d="M21.6532 6.71313V17.0276C21.6532 17.8309 21.7099 18.3664 21.8245 18.6328C21.9378 18.8993 22.1064 19.0981 22.3291 19.2279C22.5517 19.3591 22.9588 19.424 23.5517 19.424V19.9284H17.4757V19.424C18.0857 19.424 18.4954 19.3631 18.7049 19.2414C18.9143 19.1197 19.0803 18.9195 19.2028 18.6383C19.3254 18.3583 19.3873 17.8214 19.3873 17.0262V12.0793C19.3873 10.6877 19.3464 9.78569 19.2648 9.37457C19.2015 9.0757 19.1014 8.86744 18.9644 8.75114C18.8274 8.63483 18.6416 8.57533 18.4045 8.57533C18.1489 8.57533 17.8406 8.64565 17.4757 8.78494L17.2847 8.28052L21.0525 6.71043H21.6532V6.71313ZM20.5203 0C20.9023 0 21.2277 0.137949 21.4965 0.413831C21.7652 0.689712 21.8996 1.02374 21.8996 1.41593C21.8996 1.80811 21.7652 2.14485 21.4965 2.42479C21.2277 2.70473 20.9023 2.84537 20.5203 2.84537C20.1382 2.84537 19.8102 2.70473 19.5375 2.42479C19.2648 2.14485 19.1277 1.80811 19.1277 1.41593C19.1277 1.02374 19.2621 0.689712 19.5309 0.413831C19.7996 0.137949 20.129 0 20.5203 0Z" fill="white"/>
<path d="M1.95491 24.8563V26.3615H2.6347C2.79016 26.3615 2.90477 26.3263 2.97723 26.256C3.04969 26.1857 3.09843 26.0451 3.12215 25.8368H3.22359V27.1337H3.12215C3.12083 26.9849 3.10107 26.8754 3.0655 26.8064C3.02993 26.7375 2.97987 26.6847 2.91663 26.6496C2.85339 26.6144 2.75986 26.5968 2.6347 26.5968H1.95491V27.8004C1.95491 27.9938 1.96677 28.1223 1.99048 28.1845C2.00892 28.2318 2.04713 28.2724 2.10641 28.3062C2.18678 28.3508 2.27109 28.3738 2.35936 28.3738H2.49374V28.478H0.893066V28.3738H1.02481C1.17895 28.3738 1.29093 28.3278 1.36075 28.2359C1.40423 28.175 1.42662 28.0303 1.42662 27.8004V25.3269C1.42662 25.1336 1.41477 25.0051 1.39105 24.9429C1.37261 24.8955 1.33572 24.855 1.27775 24.8212C1.19871 24.7765 1.11439 24.7535 1.02481 24.7535H0.893066V24.6494H3.66888L3.70445 25.4906H3.60828C3.56085 25.3121 3.50552 25.1809 3.44228 25.097C3.37905 25.0132 3.30132 24.9523 3.20778 24.9145C3.11556 24.8766 2.97196 24.8577 2.77698 24.8577H1.95491V24.8563Z" fill="white"/>
<path d="M6.32038 25.8909V27.4583C6.32038 27.7571 6.32697 27.9411 6.34146 28.0073C6.35463 28.0736 6.37703 28.1209 6.40733 28.1466C6.43763 28.1737 6.4732 28.1858 6.51272 28.1858C6.56937 28.1858 6.63393 28.1696 6.70507 28.1372L6.74327 28.2359L5.98971 28.555H5.86587V28.0073C5.64981 28.248 5.48382 28.3995 5.37052 28.4617C5.25722 28.5239 5.13602 28.555 5.00954 28.555C4.86858 28.555 4.74606 28.5131 4.64198 28.4293C4.5379 28.3454 4.46676 28.2372 4.42592 28.106C4.38508 27.9749 4.36532 27.7882 4.36532 27.5462V26.3913C4.36532 26.2695 4.35215 26.1843 4.32712 26.137C4.30077 26.0897 4.26388 26.0532 4.2125 26.0288C4.16244 26.0031 4.07022 25.9923 3.93848 25.9937V25.8895H4.82115V27.6206C4.82115 27.8613 4.86199 28.0195 4.94367 28.0952C5.02535 28.171 5.12416 28.2088 5.24009 28.2088C5.31914 28.2088 5.40872 28.1831 5.50885 28.1331C5.60897 28.0817 5.72754 27.9857 5.86455 27.8423V26.3764C5.86455 26.229 5.8382 26.1303 5.78551 26.0789C5.73281 26.0275 5.62478 25.9991 5.4601 25.995V25.8909H6.31906H6.32038Z" fill="white"/>
<path d="M7.66549 25.8138V26.3954C7.87628 26.0072 8.09234 25.8138 8.31498 25.8138C8.41642 25.8138 8.49942 25.8449 8.56529 25.9085C8.63116 25.9721 8.6641 26.0451 8.6641 26.1276C8.6641 26.2006 8.64038 26.2628 8.59296 26.3142C8.54553 26.3656 8.48888 26.39 8.42301 26.39C8.35714 26.39 8.28731 26.3575 8.20695 26.2926C8.12659 26.2277 8.06862 26.1952 8.0291 26.1952C7.99616 26.1952 7.96059 26.2141 7.92239 26.252C7.83939 26.3291 7.75508 26.4562 7.66681 26.6334V27.8735C7.66681 28.0168 7.68393 28.125 7.71951 28.1981C7.74322 28.2494 7.78538 28.2914 7.84598 28.3252C7.90658 28.359 7.99353 28.3766 8.10683 28.3766V28.478H6.81707V28.3766C6.94486 28.3766 7.04103 28.3563 7.10295 28.3144C7.14906 28.2846 7.18068 28.2359 7.19912 28.1697C7.20834 28.1372 7.2123 28.0466 7.2123 27.8951V26.893C7.2123 26.5915 7.20571 26.4129 7.19385 26.3548C7.182 26.298 7.1596 26.2561 7.12798 26.229C7.09636 26.202 7.05552 26.1898 7.0081 26.1898C6.95145 26.1898 6.88689 26.2033 6.81575 26.2317L6.78809 26.1303L7.54956 25.8138H7.66549Z" fill="white"/>
<path d="M9.54068 26.3616C9.83579 25.9964 10.1177 25.8138 10.3852 25.8138C10.5222 25.8138 10.6407 25.849 10.7395 25.9193C10.8383 25.9897 10.9174 26.106 10.9767 26.2682C11.0175 26.3818 11.0373 26.5549 11.0373 26.7875V27.8924C11.0373 28.0561 11.0505 28.167 11.0755 28.2251C11.0952 28.2724 11.1282 28.309 11.173 28.3346C11.2178 28.3617 11.3008 28.3739 11.422 28.3739V28.4753H10.1757V28.3739H10.2284C10.3456 28.3739 10.4273 28.3549 10.4747 28.3184C10.5222 28.2819 10.5538 28.2278 10.5722 28.1561C10.5801 28.1277 10.5828 28.0398 10.5828 27.8911V26.8322C10.5828 26.5969 10.5525 26.4265 10.4932 26.3196C10.4339 26.2128 10.3338 26.16 10.1915 26.16C9.9728 26.16 9.75542 26.2831 9.53937 26.5279V27.8924C9.53937 28.0669 9.54991 28.1764 9.56967 28.217C9.5947 28.2711 9.63027 28.3117 9.67506 28.3374C9.71985 28.363 9.81076 28.3752 9.94909 28.3752V28.4766H8.7028V28.3752H8.75813C8.88592 28.3752 8.97287 28.3414 9.01767 28.2751C9.06246 28.2089 9.08486 28.0804 9.08486 27.8924V26.9322C9.08486 26.6212 9.07827 26.4319 9.06378 26.3643C9.0506 26.2966 9.02952 26.2507 9.00054 26.2263C8.97156 26.202 8.93467 26.1898 8.88592 26.1898C8.83454 26.1898 8.77263 26.2033 8.70148 26.2317L8.66064 26.1303L9.41948 25.8138H9.53805V26.3616H9.54068Z" fill="white"/>
<path d="M12.4917 25.8138V27.8924C12.4917 28.0547 12.5036 28.1615 12.526 28.2156C12.5484 28.2697 12.5826 28.3089 12.6274 28.3359C12.6722 28.363 12.7539 28.3752 12.8738 28.3752V28.4766H11.6499V28.3752C11.7724 28.3752 11.8554 28.363 11.8976 28.3387C11.9397 28.3143 11.9726 28.2737 11.9977 28.2169C12.0227 28.1601 12.0346 28.0519 12.0346 27.8924V26.8957C12.0346 26.6157 12.0267 26.4332 12.0095 26.3507C11.9964 26.2898 11.9766 26.2479 11.9489 26.2249C11.9213 26.2019 11.8844 26.1897 11.8356 26.1897C11.7843 26.1897 11.7223 26.2033 11.6486 26.2317L11.6104 26.1302L12.3692 25.8138H12.4904H12.4917ZM12.2638 24.4614C12.3402 24.4614 12.4061 24.4898 12.4601 24.5453C12.5141 24.6007 12.5418 24.6683 12.5418 24.7468C12.5418 24.8252 12.5141 24.8942 12.4601 24.9496C12.4061 25.0064 12.3402 25.0348 12.2638 25.0348C12.1874 25.0348 12.1202 25.0064 12.0662 24.9496C12.0108 24.8928 11.9832 24.8252 11.9832 24.7468C11.9832 24.6683 12.0108 24.6007 12.0649 24.5453C12.1189 24.4898 12.1861 24.4614 12.2638 24.4614Z" fill="white"/>
<path d="M13.9199 25.0402V25.8908H14.5088V26.0882H13.9199V27.7665C13.9199 27.9342 13.9437 28.0465 13.9898 28.106C14.0359 28.1641 14.0965 28.1939 14.1703 28.1939C14.2309 28.1939 14.2888 28.1749 14.3468 28.1357C14.4034 28.0965 14.4482 28.0397 14.4785 27.9653H14.5852C14.5207 28.1492 14.4298 28.2885 14.3125 28.3819C14.1953 28.4752 14.0741 28.5211 13.9489 28.5211C13.8646 28.5211 13.7816 28.4968 13.7013 28.4495C13.6209 28.4021 13.5603 28.3332 13.5221 28.2439C13.4839 28.1547 13.4641 28.0167 13.4641 27.8301V26.0909H13.0649V25.9976C13.1664 25.9557 13.2691 25.8867 13.3745 25.7867C13.4799 25.6879 13.5735 25.5703 13.6565 25.435C13.6986 25.3634 13.7579 25.2322 13.833 25.0429H13.9186L13.9199 25.0402Z" fill="white"/>
<path d="M16.963 25.8909V27.4583C16.963 27.7571 16.9695 27.9411 16.984 28.0073C16.9972 28.0736 17.0196 28.1209 17.0499 28.1466C17.0802 28.1737 17.1158 28.1858 17.1553 28.1858C17.212 28.1858 17.2765 28.1696 17.3476 28.1372L17.3859 28.2359L16.6323 28.555H16.5084V28.0073C16.2924 28.248 16.1264 28.3995 16.0131 28.4617C15.8998 28.5239 15.7786 28.555 15.6521 28.555C15.5112 28.555 15.3886 28.5131 15.2846 28.4293C15.1805 28.3454 15.1093 28.2372 15.0685 28.106C15.0277 27.9749 15.0079 27.7882 15.0079 27.5462V26.3913C15.0079 26.2695 14.9947 26.1843 14.9697 26.137C14.9433 26.0897 14.9065 26.0532 14.8551 26.0288C14.805 26.0031 14.7128 25.9923 14.5811 25.9937V25.8895H15.4637V27.6206C15.4637 27.8613 15.5046 28.0195 15.5863 28.0952C15.6679 28.171 15.7667 28.2088 15.8827 28.2088C15.9617 28.2088 16.0513 28.1831 16.1514 28.1331C16.2515 28.0817 16.3701 27.9857 16.5071 27.8423V26.3764C16.5071 26.229 16.4808 26.1303 16.4281 26.0789C16.3754 26.0275 16.2674 25.9991 16.1027 25.995V25.8909H16.9616H16.963Z" fill="white"/>
<path d="M18.3081 25.8138V26.3954C18.5189 26.0072 18.7349 25.8138 18.9576 25.8138C19.059 25.8138 19.142 25.8449 19.2079 25.9085C19.2737 25.9721 19.3067 26.0451 19.3067 26.1276C19.3067 26.2006 19.283 26.2628 19.2355 26.3142C19.1881 26.3656 19.1315 26.39 19.0656 26.39C18.9997 26.39 18.9299 26.3575 18.8495 26.2926C18.7692 26.2277 18.7112 26.1952 18.6717 26.1952C18.6387 26.1952 18.6032 26.2141 18.565 26.252C18.482 26.3291 18.3977 26.4562 18.3094 26.6334V27.8735C18.3094 28.0168 18.3265 28.125 18.3621 28.1981C18.3858 28.2494 18.428 28.2914 18.4886 28.3252C18.5492 28.359 18.6361 28.3766 18.7494 28.3766V28.478H17.4596V28.3766C17.5874 28.3766 17.6836 28.3563 17.7455 28.3144C17.7916 28.2846 17.8233 28.2359 17.8417 28.1697C17.8509 28.1372 17.8549 28.0466 17.8549 27.8951V26.893C17.8549 26.5915 17.8483 26.4129 17.8364 26.3548C17.8246 26.298 17.8022 26.2561 17.7706 26.229C17.7389 26.202 17.6981 26.1898 17.6507 26.1898C17.594 26.1898 17.5295 26.2033 17.4583 26.2317L17.4307 26.1303L18.1921 25.8138H18.3081Z" fill="white"/>
<path d="M19.8706 26.8646C19.8693 27.2487 19.9602 27.5503 20.1433 27.768C20.3264 27.9871 20.5425 28.0953 20.7901 28.0953C20.9548 28.0953 21.0984 28.048 21.2209 27.956C21.3435 27.8627 21.4449 27.7031 21.5279 27.4773L21.6135 27.5341C21.5753 27.7924 21.4633 28.0263 21.2776 28.2386C21.0918 28.451 20.86 28.5564 20.582 28.5564C20.279 28.5564 20.0208 28.4361 19.8047 28.194C19.5886 27.9519 19.4819 27.6274 19.4819 27.219C19.4819 26.7767 19.5926 26.4319 19.8139 26.1844C20.0353 25.9369 20.3119 25.8125 20.6465 25.8125C20.9285 25.8125 21.1616 25.9085 21.3421 26.0992C21.5239 26.2899 21.6148 26.5455 21.6148 26.866H19.8732L19.8706 26.8646ZM19.8706 26.701H21.0365C21.0273 26.5347 21.0075 26.4184 20.9785 26.3507C20.9324 26.2453 20.8639 26.1628 20.773 26.1019C20.6821 26.041 20.5873 26.0113 20.4884 26.0113C20.3356 26.0113 20.1999 26.0721 20.08 26.1939C19.9602 26.3156 19.8903 26.4846 19.8693 26.701H19.8706Z" fill="white"/>
<path d="M29.5209 28.3725V28.4766H27.9229V28.3725H28.0546C28.2087 28.3725 28.3207 28.3265 28.3905 28.2345C28.434 28.1737 28.4564 28.029 28.4564 27.7991V25.3256C28.4564 25.1322 28.4446 25.0037 28.4208 24.9415C28.4024 24.8942 28.3655 24.8536 28.3075 24.8198C28.2272 24.7752 28.1429 24.7522 28.0546 24.7522H27.9229V24.6481H29.5209V24.7522H29.3865C29.2337 24.7522 29.123 24.7982 29.0532 24.8901C29.0071 24.951 28.9847 25.0957 28.9847 25.3256V27.7991C28.9847 27.9925 28.9966 28.1209 29.0203 28.1831C29.0387 28.2305 29.0769 28.2711 29.1362 28.3049C29.2152 28.3495 29.2982 28.3725 29.3865 28.3725H29.5209Z" fill="white"/>
<path d="M30.568 26.3616C30.8631 25.9964 31.1451 25.8138 31.4125 25.8138C31.5495 25.8138 31.6681 25.849 31.7669 25.9193C31.8657 25.9897 31.9447 26.106 32.004 26.2682C32.0449 26.3818 32.0646 26.5549 32.0646 26.7875V27.8924C32.0646 28.0561 32.0778 28.167 32.1028 28.2251C32.1226 28.2724 32.1555 28.309 32.2003 28.3346C32.2451 28.3617 32.3281 28.3739 32.4493 28.3739V28.4753H31.203V28.3739H31.2557C31.373 28.3739 31.4547 28.3549 31.5021 28.3184C31.5495 28.2819 31.5811 28.2278 31.5996 28.1561C31.6075 28.1277 31.6101 28.0398 31.6101 27.8911V26.8322C31.6101 26.5969 31.5798 26.4265 31.5205 26.3196C31.4612 26.2128 31.3611 26.16 31.2188 26.16C31.0001 26.16 30.7828 26.2831 30.5667 26.5279V27.8924C30.5667 28.0669 30.5772 28.1764 30.597 28.217C30.622 28.2711 30.6576 28.3117 30.7024 28.3374C30.7472 28.363 30.8381 28.3752 30.9764 28.3752V28.4766H29.7301V28.3752H29.7855C29.9133 28.3752 30.0002 28.3414 30.045 28.2751C30.0898 28.2089 30.1122 28.0804 30.1122 27.8924V26.9322C30.1122 26.6212 30.1056 26.4319 30.0911 26.3643C30.0779 26.2966 30.0569 26.2507 30.0279 26.2263C29.9989 26.202 29.962 26.1898 29.9133 26.1898C29.8619 26.1898 29.8 26.2033 29.7288 26.2317L29.688 26.1303L30.4468 25.8138H30.5654V26.3616H30.568Z" fill="white"/>
<path d="M33.3838 25.0402V25.8908H33.9727V26.0882H33.3838V27.7665C33.3838 27.9342 33.4075 28.0465 33.4536 28.106C33.4997 28.1641 33.5604 28.1939 33.6341 28.1939C33.6947 28.1939 33.7527 28.1749 33.8107 28.1357C33.8673 28.0965 33.9121 28.0397 33.9424 27.9653H34.0491C33.9846 28.1492 33.8937 28.2885 33.7764 28.3819C33.6592 28.4752 33.538 28.5211 33.4128 28.5211C33.3285 28.5211 33.2455 28.4968 33.1651 28.4495C33.0848 28.4021 33.0242 28.3332 32.986 28.2439C32.9477 28.1547 32.928 28.0167 32.928 27.8301V26.0909H32.5288V25.9976C32.6303 25.9557 32.733 25.8867 32.8384 25.7867C32.9438 25.6879 33.0373 25.5703 33.1203 25.435C33.1625 25.3634 33.2218 25.2322 33.2969 25.0429H33.3825L33.3838 25.0402Z" fill="white"/>
<path d="M34.6406 26.8646C34.6393 27.2487 34.7302 27.5503 34.9133 27.768C35.0964 27.9871 35.3125 28.0953 35.5602 28.0953C35.7248 28.0953 35.8684 28.048 35.991 27.956C36.1135 27.8627 36.2149 27.7031 36.2979 27.4773L36.3835 27.5341C36.3453 27.7924 36.2334 28.0263 36.0476 28.2386C35.8618 28.451 35.63 28.5564 35.352 28.5564C35.049 28.5564 34.7908 28.4361 34.5747 28.194C34.3587 27.9519 34.252 27.6274 34.252 27.219C34.252 26.7767 34.3626 26.4319 34.5839 26.1844C34.8053 25.9369 35.0819 25.8125 35.4166 25.8125C35.6985 25.8125 35.9317 25.9085 36.1122 26.0992C36.294 26.2899 36.3849 26.5455 36.3849 26.866H34.6432L34.6406 26.8646ZM34.6406 26.701H35.8065C35.7973 26.5347 35.7775 26.4184 35.7485 26.3507C35.7024 26.2453 35.6339 26.1628 35.543 26.1019C35.4521 26.041 35.3573 26.0113 35.2585 26.0113C35.1056 26.0113 34.9699 26.0721 34.8501 26.1939C34.7302 26.3156 34.6604 26.4846 34.6393 26.701H34.6406Z" fill="white"/>
<path d="M37.4555 25.8138V26.3954C37.6663 26.0072 37.8824 25.8138 38.105 25.8138C38.2065 25.8138 38.2895 25.8449 38.3553 25.9085C38.4212 25.9721 38.4541 26.0451 38.4541 26.1276C38.4541 26.2006 38.4304 26.2628 38.383 26.3142C38.3356 26.3656 38.2789 26.39 38.213 26.39C38.1472 26.39 38.0774 26.3575 37.997 26.2926C37.9166 26.2277 37.8587 26.1952 37.8191 26.1952C37.7862 26.1952 37.7506 26.2141 37.7124 26.252C37.6294 26.3291 37.5451 26.4562 37.4568 26.6334V27.8735C37.4568 28.0168 37.474 28.125 37.5095 28.1981C37.5333 28.2494 37.5754 28.2914 37.636 28.3252C37.6966 28.359 37.7836 28.3766 37.8969 28.3766V28.478H36.6071V28.3766C36.7349 28.3766 36.8311 28.3563 36.893 28.3144C36.9391 28.2846 36.9707 28.2359 36.9892 28.1697C36.9984 28.1372 37.0023 28.0466 37.0023 27.8951V26.893C37.0023 26.5915 36.9958 26.4129 36.9839 26.3548C36.972 26.298 36.9496 26.2561 36.918 26.229C36.8864 26.202 36.8456 26.1898 36.7981 26.1898C36.7415 26.1898 36.6769 26.2033 36.6058 26.2317L36.5781 26.1303L37.3396 25.8138H37.4555Z" fill="white"/>
<path d="M39.4639 25.8138V27.8924C39.4639 28.0547 39.4757 28.1615 39.4981 28.2156C39.5205 28.2697 39.5548 28.3089 39.5996 28.3359C39.6444 28.363 39.726 28.3752 39.8459 28.3752V28.4766H38.622V28.3752C38.7446 28.3752 38.8276 28.363 38.8697 28.3387C38.9119 28.3143 38.9448 28.2737 38.9698 28.2169C38.9949 28.1601 39.0067 28.0519 39.0067 27.8924V26.8957C39.0067 26.6157 38.9988 26.4332 38.9817 26.3507C38.9685 26.2898 38.9488 26.2479 38.9211 26.2249C38.8934 26.2019 38.8565 26.1897 38.8078 26.1897C38.7564 26.1897 38.6945 26.2033 38.6207 26.2317L38.5825 26.1302L39.3414 25.8138H39.4626H39.4639ZM39.236 24.4614C39.3124 24.4614 39.3782 24.4898 39.4323 24.5453C39.4863 24.6007 39.5139 24.6683 39.5139 24.7468C39.5139 24.8252 39.4863 24.8942 39.4323 24.9496C39.3782 25.0064 39.3124 25.0348 39.236 25.0348C39.1596 25.0348 39.0924 25.0064 39.0383 24.9496C38.983 24.8928 38.9553 24.8252 38.9553 24.7468C38.9553 24.6683 38.983 24.6007 39.037 24.5453C39.091 24.4898 39.1582 24.4614 39.236 24.4614Z" fill="white"/>
<path d="M41.3921 25.8138C41.7742 25.8138 42.0798 25.9626 42.3117 26.2601C42.508 26.5144 42.6055 26.8065 42.6055 27.1351C42.6055 27.3664 42.5514 27.6017 42.4434 27.8383C42.3354 28.075 42.1865 28.2549 41.9968 28.3752C41.8071 28.4956 41.595 28.5564 41.3631 28.5564C40.9837 28.5564 40.682 28.4009 40.4581 28.0899C40.2697 27.8289 40.1748 27.534 40.1748 27.2081C40.1748 26.9715 40.2315 26.7348 40.3474 26.5008C40.462 26.2669 40.6135 26.0938 40.8006 25.9815C40.9877 25.8693 41.1853 25.8138 41.3947 25.8138H41.3921ZM41.3065 25.9978C41.209 25.9978 41.1115 26.0275 41.014 26.087C40.9165 26.1465 40.8362 26.2507 40.7756 26.3994C40.7149 26.5482 40.6846 26.7389 40.6846 26.9728C40.6846 27.3501 40.7571 27.6747 40.9033 27.9479C41.0496 28.2211 41.2419 28.3576 41.4804 28.3576C41.6582 28.3576 41.8045 28.2819 41.9204 28.1318C42.0363 27.9817 42.0943 27.722 42.0943 27.3555C42.0943 26.8957 41.9981 26.5347 41.8058 26.2709C41.6754 26.0897 41.5094 26.0005 41.3078 26.0005L41.3065 25.9978Z" fill="white"/>
<path d="M43.7148 25.8138V26.3954C43.9256 26.0072 44.1417 25.8138 44.3643 25.8138C44.4657 25.8138 44.5487 25.8449 44.6146 25.9085C44.6805 25.9721 44.7134 26.0451 44.7134 26.1276C44.7134 26.2006 44.6897 26.2628 44.6423 26.3142C44.5948 26.3656 44.5382 26.39 44.4723 26.39C44.4065 26.39 44.3366 26.3575 44.2563 26.2926C44.1759 26.2277 44.1179 26.1952 44.0784 26.1952C44.0455 26.1952 44.0099 26.2141 43.9717 26.252C43.8887 26.3291 43.8044 26.4562 43.7161 26.6334V27.8735C43.7161 28.0168 43.7333 28.125 43.7688 28.1981C43.7925 28.2494 43.8347 28.2914 43.8953 28.3252C43.9559 28.359 44.0428 28.3766 44.1561 28.3766V28.478H42.8664V28.3766C42.9942 28.3766 43.0903 28.3563 43.1523 28.3144C43.1984 28.2846 43.23 28.2359 43.2484 28.1697C43.2577 28.1372 43.2616 28.0466 43.2616 27.8951V26.893C43.2616 26.5915 43.255 26.4129 43.2432 26.3548C43.2313 26.298 43.2089 26.2561 43.1773 26.229C43.1457 26.202 43.1048 26.1898 43.0574 26.1898C43.0008 26.1898 42.9362 26.2033 42.8651 26.2317L42.8374 26.1303L43.5989 25.8138H43.7148Z" fill="white"/>
<path d="M46.1826 28.4779V28.3738H46.3236C46.4817 28.3738 46.5937 28.3224 46.6595 28.2183C46.7004 28.1561 46.7201 28.0168 46.7201 27.8004V25.3269C46.7201 25.0876 46.6938 24.9388 46.6437 24.878C46.5726 24.7955 46.4659 24.7535 46.3249 24.7535H46.1839V24.6494H47.7029C48.2602 24.6494 48.6844 24.7143 48.9756 24.8442C49.2667 24.974 49.4999 25.1904 49.6777 25.4933C49.8543 25.7962 49.9439 26.1465 49.9439 26.5441C49.9439 27.0769 49.7858 27.5218 49.4709 27.8802C49.1165 28.2792 48.5777 28.4793 47.8531 28.4793H46.1853L46.1826 28.4779ZM47.2471 28.2007C47.4803 28.2535 47.6753 28.2792 47.8334 28.2792C48.2589 28.2792 48.6119 28.1263 48.8926 27.8194C49.1732 27.5124 49.3141 27.0958 49.3141 26.5711C49.3141 26.0464 49.1732 25.6245 48.8926 25.3202C48.6119 25.0146 48.251 24.8631 47.811 24.8631C47.6463 24.8631 47.4579 24.8901 47.2471 24.9456V28.2021V28.2007Z" fill="white"/>
<path d="M50.7553 26.8646C50.754 27.2487 50.8449 27.5503 51.028 27.768C51.2112 27.9871 51.4272 28.0953 51.6749 28.0953C51.8396 28.0953 51.9832 28.048 52.1057 27.956C52.2282 27.8627 52.3297 27.7031 52.4127 27.4773L52.4983 27.5341C52.4601 27.7924 52.3481 28.0263 52.1623 28.2386C51.9766 28.451 51.7447 28.5564 51.4667 28.5564C51.1637 28.5564 50.9055 28.4361 50.6895 28.194C50.4734 27.9519 50.3667 27.6274 50.3667 27.219C50.3667 26.7767 50.4774 26.4319 50.6987 26.1844C50.92 25.9369 51.1967 25.8125 51.5313 25.8125C51.8132 25.8125 52.0464 25.9085 52.2269 26.0992C52.4087 26.2899 52.4996 26.5455 52.4996 26.866H50.758L50.7553 26.8646ZM50.7553 26.701H51.9213C51.912 26.5347 51.8923 26.4184 51.8633 26.3507C51.8172 26.2453 51.7487 26.1628 51.6578 26.1019C51.5669 26.041 51.472 26.0113 51.3732 26.0113C51.2204 26.0113 51.0847 26.0721 50.9648 26.1939C50.8449 26.3156 50.7751 26.4846 50.754 26.701H50.7553Z" fill="white"/>
<path d="M54.4607 25.8139V26.6956H54.3698C54.3 26.4184 54.2104 26.2304 54.101 26.1303C53.9917 26.0302 53.8533 25.9802 53.6847 25.9802C53.5569 25.9802 53.4529 26.0154 53.3738 26.0843C53.2948 26.1533 53.2552 26.2317 53.2552 26.3156C53.2552 26.4211 53.2842 26.5117 53.3435 26.5874C53.4002 26.6645 53.5161 26.747 53.69 26.8336L54.0918 27.0337C54.4646 27.2203 54.6504 27.4665 54.6504 27.7707C54.6504 28.006 54.5634 28.1954 54.3909 28.3401C54.2183 28.4848 54.0233 28.5565 53.8086 28.5565C53.6544 28.5565 53.4779 28.5281 53.2803 28.4713C53.2197 28.4523 53.1696 28.4429 53.1314 28.4429C53.0892 28.4429 53.0563 28.4672 53.0326 28.5159H52.9417V27.5922H53.0326C53.084 27.8559 53.1815 28.0547 53.3264 28.1886C53.4713 28.3225 53.6333 28.3888 53.8138 28.3888C53.9403 28.3888 54.0431 28.3509 54.1234 28.2738C54.2038 28.1981 54.2433 28.1061 54.2433 27.9979C54.2433 27.8681 54.1985 27.7586 54.1102 27.6707C54.0207 27.5828 53.8441 27.4705 53.578 27.3339C53.3119 27.1987 53.138 27.0756 53.055 26.9674C52.972 26.8606 52.9312 26.724 52.9312 26.5604C52.9312 26.3481 53.0023 26.1695 53.1446 26.0262C53.2869 25.8828 53.47 25.8112 53.6966 25.8112C53.7954 25.8112 53.9153 25.8328 54.0576 25.8761C54.1511 25.9045 54.213 25.918 54.2446 25.918C54.2736 25.918 54.2973 25.9112 54.3131 25.8977C54.3303 25.8842 54.3487 25.8558 54.3711 25.8098H54.462L54.4607 25.8139Z" fill="white"/>
<path d="M55.8941 25.8138V27.8924C55.8941 28.0547 55.9059 28.1615 55.9283 28.2156C55.9507 28.2697 55.985 28.3089 56.0297 28.3359C56.0745 28.363 56.1562 28.3752 56.2761 28.3752V28.4766H55.0522V28.3752C55.1747 28.3752 55.2577 28.363 55.2999 28.3387C55.3421 28.3143 55.375 28.2737 55.4 28.2169C55.425 28.1601 55.4369 28.0519 55.4369 27.8924V26.8957C55.4369 26.6157 55.429 26.4332 55.4119 26.3507C55.3987 26.2898 55.3789 26.2479 55.3513 26.2249C55.3236 26.2019 55.2867 26.1897 55.238 26.1897C55.1866 26.1897 55.1247 26.2033 55.0509 26.2317L55.0127 26.1302L55.7715 25.8138H55.8927H55.8941ZM55.6661 24.4614C55.7425 24.4614 55.8084 24.4898 55.8624 24.5453C55.9164 24.6007 55.9441 24.6683 55.9441 24.7468C55.9441 24.8252 55.9164 24.8942 55.8624 24.9496C55.8084 25.0064 55.7425 25.0348 55.6661 25.0348C55.5897 25.0348 55.5225 25.0064 55.4685 24.9496C55.4132 24.8928 55.3855 24.8252 55.3855 24.7468C55.3855 24.6683 55.4132 24.6007 55.4672 24.5453C55.5212 24.4898 55.5884 24.4614 55.6661 24.4614Z" fill="white"/>
<path d="M57.2646 27.5341C57.1105 27.457 56.9919 27.3488 56.9102 27.2108C56.8272 27.0729 56.7864 26.9201 56.7864 26.7524C56.7864 26.4968 56.8799 26.2764 57.0683 26.0911C57.2567 25.9072 57.4965 25.8138 57.7903 25.8138C58.03 25.8138 58.2382 25.8747 58.4147 25.9951H58.9483C59.0273 25.9951 59.0734 25.9978 59.0853 26.0018C59.0985 26.0072 59.1077 26.014 59.113 26.0262C59.1235 26.0437 59.1301 26.0735 59.1301 26.1168C59.1301 26.1655 59.1261 26.1993 59.1169 26.2182C59.1116 26.2277 59.1024 26.2344 59.0879 26.2412C59.0747 26.2466 59.0273 26.2493 58.9496 26.2493H58.6216C58.7243 26.3845 58.7757 26.5576 58.7757 26.7686C58.7757 27.0093 58.6861 27.2162 58.5056 27.3866C58.3264 27.5584 58.084 27.6436 57.7824 27.6436C57.6572 27.6436 57.5307 27.6247 57.4003 27.5868C57.3199 27.6585 57.2646 27.7207 57.2369 27.7748C57.208 27.8289 57.1948 27.8735 57.1948 27.9114C57.1948 27.9438 57.2093 27.9749 57.2396 28.0047C57.2699 28.0344 57.3292 28.0561 57.4174 28.0696C57.4688 28.0777 57.5966 28.0831 57.8021 28.0899C58.1802 28.0993 58.4253 28.1129 58.5372 28.1291C58.7072 28.1534 58.8442 28.2183 58.9456 28.3238C59.0471 28.4293 59.0985 28.5591 59.0985 28.7133C59.0985 28.9256 59.001 29.1258 58.8073 29.3124C58.5214 29.5869 58.1473 29.7249 57.6875 29.7249C57.3331 29.7249 57.0341 29.6424 56.7903 29.4787C56.6533 29.3841 56.5835 29.2867 56.5835 29.1853C56.5835 29.1407 56.594 29.0947 56.6138 29.0501C56.6454 28.9797 56.7087 28.8837 56.8061 28.7593C56.8193 28.7431 56.9129 28.6403 57.0868 28.4537C56.9919 28.3955 56.9234 28.3428 56.8852 28.2968C56.8457 28.2508 56.8259 28.1981 56.8259 28.1399C56.8259 28.0736 56.8523 27.9966 56.9049 27.9087C56.9576 27.8208 57.0775 27.695 57.2672 27.5327L57.2646 27.5341ZM57.2369 28.478C57.1513 28.574 57.0854 28.6633 57.042 28.7458C56.9985 28.8283 56.9761 28.9053 56.9761 28.9743C56.9761 29.0649 57.0288 29.1434 57.1355 29.211C57.3186 29.3273 57.5834 29.3854 57.9312 29.3854C58.279 29.3854 58.5043 29.3259 58.6611 29.2056C58.8179 29.0866 58.8969 28.9581 58.8969 28.8228C58.8969 28.7255 58.8495 28.6552 58.7559 28.6132C58.6611 28.5713 58.4714 28.547 58.1894 28.5402C57.7771 28.5294 57.4596 28.5078 57.2369 28.4753V28.478ZM57.7428 25.9504C57.6071 25.9504 57.4938 26.0059 57.4016 26.1168C57.3094 26.2277 57.2646 26.3981 57.2646 26.628C57.2646 26.9255 57.3265 27.1567 57.4517 27.3204C57.5465 27.4448 57.6677 27.507 57.8153 27.507C57.9628 27.507 58.0696 27.4529 58.1591 27.3461C58.2487 27.2392 58.2935 27.0702 58.2935 26.8403C58.2935 26.5414 58.2303 26.3061 58.1038 26.1371C58.0103 26.0126 57.8904 25.9504 57.7428 25.9504Z" fill="white"/>
<path d="M60.1418 26.3616C60.4369 25.9964 60.7188 25.8138 60.9862 25.8138C61.1232 25.8138 61.2418 25.849 61.3406 25.9193C61.4394 25.9897 61.5185 26.106 61.5777 26.2682C61.6186 26.3818 61.6383 26.5549 61.6383 26.7875V27.8924C61.6383 28.0561 61.6515 28.167 61.6766 28.2251C61.6963 28.2724 61.7293 28.309 61.774 28.3346C61.8188 28.3617 61.9018 28.3739 62.023 28.3739V28.4753H60.7768V28.3739H60.8295C60.9467 28.3739 61.0284 28.3549 61.0758 28.3184C61.1232 28.2819 61.1549 28.2278 61.1733 28.1561C61.1812 28.1277 61.1838 28.0398 61.1838 27.8911V26.8322C61.1838 26.5969 61.1535 26.4265 61.0943 26.3196C61.035 26.2128 60.9348 26.16 60.7926 26.16C60.5739 26.16 60.3565 26.2831 60.1404 26.5279V27.8924C60.1404 28.0669 60.151 28.1764 60.1707 28.217C60.1958 28.2711 60.2313 28.3117 60.2761 28.3374C60.3209 28.363 60.4118 28.3752 60.5502 28.3752V28.4766H59.3039V28.3752H59.3592C59.487 28.3752 59.5739 28.3414 59.6187 28.2751C59.6635 28.2089 59.6859 28.0804 59.6859 27.8924V26.9322C59.6859 26.6212 59.6793 26.4319 59.6649 26.3643C59.6517 26.2966 59.6306 26.2507 59.6016 26.2263C59.5726 26.202 59.5357 26.1898 59.487 26.1898C59.4356 26.1898 59.3737 26.2033 59.3026 26.2317L59.2617 26.1303L60.0206 25.8138H60.1391V26.3616H60.1418Z" fill="white"/>
<path d="M48.3251 6.74718V17.0616C48.3251 17.865 48.3818 18.4005 48.4964 18.6669C48.6097 18.9333 48.7783 19.1321 49.001 19.2619C49.2236 19.3931 49.6307 19.458 50.2235 19.458V19.9625H44.1476V19.458C44.7575 19.458 45.1673 19.3972 45.3767 19.2755C45.5862 19.1538 45.7522 18.9536 45.8747 18.6723C45.9972 18.3924 46.0592 17.8555 46.0592 17.0603V12.1134C46.0592 10.7218 46.0183 9.81975 45.9366 9.40863C45.8734 9.10976 45.7733 8.9015 45.6363 8.78519C45.4992 8.66889 45.3135 8.60939 45.0764 8.60939C44.8208 8.60939 44.5125 8.67971 44.1476 8.819L43.9565 8.31457L47.7244 6.74448H48.3251V6.74718ZM47.1921 0.0340576C47.5742 0.0340576 47.8996 0.172006 48.1684 0.447888C48.4371 0.72377 48.5715 1.0578 48.5715 1.44998C48.5715 1.84217 48.4371 2.17891 48.1684 2.45885C47.8996 2.73879 47.5742 2.87943 47.1921 2.87943C46.8101 2.87943 46.482 2.73879 46.2093 2.45885C45.9366 2.17891 45.7996 1.84217 45.7996 1.44998C45.7996 1.0578 45.934 0.72377 46.2028 0.447888C46.4715 0.172006 46.8009 0.0340576 47.1921 0.0340576Z" fill="white"/>
<path d="M55.7136 6.48475V9.37205C56.7596 7.44764 57.8347 6.48475 58.936 6.48475C59.4367 6.48475 59.8503 6.64163 60.1784 6.95403C60.5064 7.26777 60.6698 7.62885 60.6698 8.03997C60.6698 8.40375 60.5512 8.7121 60.3154 8.96499C60.0782 9.21788 59.7963 9.34365 59.4683 9.34365C59.1402 9.34365 58.7924 9.18271 58.3959 8.8595C57.9993 8.53764 57.7069 8.37536 57.5158 8.37536C57.3525 8.37536 57.1746 8.46867 56.9836 8.65529C56.5739 9.03801 56.151 9.66957 55.7136 10.5473V16.7005C55.7136 17.4105 55.8006 17.9474 55.9731 18.3125C56.0917 18.5654 56.3012 18.775 56.6016 18.9427C56.9019 19.1104 57.334 19.1956 57.8992 19.1956V19.7H51.4965V19.1956C52.1342 19.1956 52.6071 19.0928 52.9167 18.8873C53.1446 18.7385 53.304 18.4991 53.3949 18.1719C53.4397 18.0136 53.4634 17.5606 53.4634 16.8127V11.8374C53.4634 10.343 53.4331 9.45319 53.3752 9.16784C53.3159 8.88249 53.2066 8.67558 53.0471 8.5444C52.8877 8.41323 52.6901 8.34831 52.453 8.34831C52.1711 8.34831 51.8522 8.41863 51.4978 8.55792L51.3608 8.0535L55.1432 6.4834H55.7162L55.7136 6.48475Z" fill="white"/>
<path d="M26.4463 1.61743H34.1124V2.49241C34.1124 2.49241 31.4301 2.01097 32.9623 3.97866C34.4958 5.94635 43.1196 19.9122 44.6518 25.4204C44.6518 25.4204 36.9857 15.1911 27.7874 2.6006H26.4463V1.61743Z" fill="#E2C573"/>
<path d="M26.4463 19.7161V19.3226C26.4463 19.3226 28.3631 19.7161 29.8953 17.3549C31.4288 14.9937 39.0936 3.58513 39.0936 3.58513H36.7933V2.01099H44.4594V2.40452L41.0104 3.58513C41.0104 3.58513 33.3443 16.1756 32.5789 18.142C32.1955 19.3226 34.4958 19.3226 34.4958 19.3226V20.1096H26.4476V19.7161H26.4463Z" fill="#E2C573"/>
<path d="M41.8546 22.8632H31.6195H21.0801H10.5394H0V22.9619V23.0606V23.158V23.2567H10.5394H21.0801H31.6195H42.2379H42.1602L41.8546 22.8632Z" fill="white"/>
<path d="M62.0899 22.8632H53.466H44.2651L44.4601 23.2567H44.8422H53.466H62.0899V23.0606V22.8632Z" fill="white"/>
<path d="M25.4026 26.1195H26.4275V26.2114C26.2866 26.2236 26.1812 26.2547 26.114 26.3075C26.0468 26.3602 25.9414 26.5198 25.7978 26.7849C25.6542 27.0499 25.4935 27.2988 25.3143 27.5287C25.4592 27.7018 25.5883 27.8235 25.7016 27.8924C25.8149 27.9614 25.9295 27.9966 26.0455 27.9966C26.1614 27.9966 26.2523 27.9655 26.3314 27.9033C26.4091 27.841 26.4644 27.7477 26.4973 27.626L26.5883 27.6936C26.5276 27.9289 26.4315 28.1034 26.2984 28.2143C26.1654 28.3265 26.0099 28.382 25.832 28.382C25.699 28.382 25.5633 28.3441 25.4263 28.2711C25.2893 28.1967 25.1391 28.0709 24.9757 27.8938C24.7742 28.0777 24.5924 28.2048 24.4303 28.2751C24.2683 28.3468 24.0957 28.382 23.9112 28.382C23.6425 28.382 23.4291 28.309 23.2723 28.1616C23.1142 28.0141 23.0352 27.8397 23.0352 27.6355C23.0352 27.4313 23.1063 27.2325 23.2473 27.031C23.3882 26.8295 23.6543 26.6212 24.0456 26.4062C23.9692 26.2331 23.9165 26.0897 23.8888 25.9788C23.8612 25.8679 23.848 25.7611 23.848 25.6597C23.848 25.3743 23.9508 25.1566 24.155 25.0065C24.3144 24.8902 24.4962 24.8307 24.6991 24.8307C24.9019 24.8307 25.0508 24.8888 25.172 25.0078C25.2945 25.1255 25.3551 25.2702 25.3551 25.442C25.3551 25.6137 25.2959 25.7746 25.1786 25.9085C25.06 26.0424 24.8519 26.1885 24.5528 26.3467C24.7597 26.724 24.9744 27.0702 25.1997 27.3839C25.4856 27.0337 25.6292 26.7375 25.6292 26.4968C25.6292 26.4197 25.6041 26.3521 25.5554 26.2912C25.5198 26.2466 25.4684 26.2196 25.4013 26.2114V26.1195H25.4026ZM24.8493 27.7504C24.6345 27.4502 24.4856 27.2298 24.4026 27.0918C24.3196 26.9539 24.2287 26.7808 24.1299 26.5752C23.935 26.6902 23.7874 26.8173 23.6899 26.9552C23.5911 27.0945 23.5424 27.2447 23.5424 27.4056C23.5424 27.5841 23.599 27.741 23.711 27.8762C23.823 28.0114 23.9745 28.0791 24.1642 28.0791C24.2669 28.0791 24.3658 28.0588 24.4606 28.0169C24.5555 27.9749 24.6859 27.8857 24.8493 27.7491V27.7504ZM24.4711 26.1844C24.6727 26.0857 24.8242 25.9734 24.9243 25.849C25.0245 25.7232 25.0745 25.584 25.0745 25.4311C25.0745 25.3108 25.039 25.2121 24.9665 25.1336C24.894 25.0552 24.8045 25.016 24.6964 25.016C24.5555 25.016 24.4474 25.066 24.375 25.1674C24.3025 25.2689 24.2669 25.3676 24.2669 25.4649C24.2669 25.5474 24.2801 25.638 24.3078 25.7395C24.3355 25.8409 24.3895 25.9897 24.4711 26.1871V26.1844Z" fill="white"/>
</svg>
