<svg width="153" height="149" viewBox="0 0 153 149" fill="none" xmlns="http://www.w3.org/2000/svg">
<g id="Group">
<path id="Vector" d="M100.404 66.5688L92.514 73.8866C107.457 86.5307 113.981 103.445 107.21 115.14C99.0725 129.253 74.6606 130.41 52.7032 117.766C30.7457 105.122 19.5557 83.4118 27.7301 69.2961C35.7964 55.3221 59.8229 54.0631 81.6079 66.319L87.852 57.7389C87.4294 57.4587 86.9764 57.1786 86.52 56.9322C53.7951 38.0572 16.9999 40.5414 4.30207 62.4644C-8.36193 84.3873 7.87883 117.446 40.6071 136.324C73.3692 155.165 110.164 152.715 122.825 130.792C133.559 112.231 123.562 85.7206 100.411 66.562L100.404 66.5688Z" fill="black"/>
<path id="Vector_2" d="M88.5483 99.9781C84.4103 107.124 72.3785 107.927 61.6787 101.797C51.0161 95.6002 45.6847 84.8126 49.8227 77.667C53.7848 70.8015 64.941 69.7517 75.2521 75.0747L68.3758 84.529C67.0776 86.2809 67.2534 88.6605 68.7984 90.203C69.6402 91.0435 70.7626 91.4654 71.8849 91.4654C73.0073 91.4654 74.0249 91.0806 74.8667 90.311L84.1264 81.6971C89.5625 87.5804 91.5638 94.726 88.5449 99.9781H88.5483Z" fill="black"/>
<path id="Vector_3" d="M124.387 24.9844L122.477 0L100.019 22.4225L99.6134 47.5014L71.1955 86.6049C70.9419 86.9492 70.9757 87.4251 71.2766 87.7289C71.6079 88.0631 72.1488 88.0698 72.4903 87.7458L108.096 54.6403L127.808 51.9805L152.305 27.5227L124.384 24.9878L124.387 24.9844Z" fill="black"/>
</g>
</svg>
