<svg width="152" height="99" viewBox="0 0 152 99" fill="none" xmlns="http://www.w3.org/2000/svg">
<path id="Vector" d="M115.542 14.5635C119.69 15.7661 123.129 17.7277 125.866 20.4613C127.201 21.7874 129.117 24.5762 131.618 28.8223C136.561 37.207 141.508 45.589 146.461 53.9683C148.408 57.2613 149.665 59.6351 150.216 61.0899C152.493 67.0639 152.631 74.5846 150.394 80.6112C144.861 95.5449 128.469 102.921 113.862 96.8972C107.519 94.2818 102.733 89.8019 99.508 83.4629C98.5802 81.6353 97.5322 78.2819 96.3796 73.3924C94.9212 67.2241 93.4603 61.0558 92.0019 54.8901C91.6961 53.5797 90.6455 52.7604 88.8578 52.4217C80.9099 50.917 72.7164 50.8303 64.2824 52.1748C62.1262 52.5188 60.5058 53.0493 59.9413 55.389C58.6058 60.9035 57.2467 66.6832 55.8589 72.7281C54.7011 77.7699 53.6217 81.2939 52.6286 83.3159C50.1979 88.25 46.6304 92.1417 41.9338 95.0039C26.506 104.407 6.23517 96.4482 1.18053 79.1144C-0.562715 73.1404 -0.374534 67.211 1.73984 61.3236C2.40107 59.4907 4.04238 56.379 6.6664 51.9858C11.4518 43.9845 16.0935 36.1513 20.5915 28.4836C23.0169 24.3425 24.9744 21.5668 26.4616 20.1593C29.2894 17.4678 32.6531 15.6086 36.5499 14.5792C37.5692 14.3087 38.3428 13.4369 38.9204 12.4496C40.3971 9.9418 41.8659 7.44191 43.3373 4.93413C46.6487 -0.716896 53.9458 -1.78828 58.4542 3.15374C59.7479 4.57175 60.5372 6.20509 60.809 8.06425C60.9658 9.10938 60.8351 10.8504 60.4274 13.2951C59.9936 15.9158 59.5702 18.4157 59.1546 20.8053C59.0161 21.6089 59.2461 22.4991 59.7349 23.2422C62.2622 27.0708 63.6186 31.0439 63.8068 35.1561C63.9244 37.6691 65.3958 38.8981 67.9702 38.5856C73.4325 37.9291 78.8896 37.9343 84.3468 38.6013C86.8532 38.9086 88.1338 37.3934 88.2541 35.0589C88.4475 31.1778 89.7412 27.3282 92.1378 23.5153C92.7808 22.4859 92.9951 21.3699 92.786 20.1672C92.245 17.0896 91.7405 14.0645 91.2779 11.0841C89.6889 0.808777 103.083 -4.36695 108.616 4.79758C110.323 7.6231 111.943 10.3777 113.472 13.0562C113.885 13.7783 114.578 14.2799 115.545 14.5608M50.8801 71.0685C50.8801 58.204 40.5016 47.779 27.7004 47.779C14.8991 47.779 4.52068 58.2066 4.52068 71.0685C4.52068 83.9303 14.8991 94.358 27.7004 94.358C40.5016 94.358 50.8801 83.9303 50.8801 71.0685ZM147.509 71.0737C147.509 58.2092 137.13 47.7843 124.329 47.7843C111.528 47.7843 101.149 58.2119 101.149 71.0737C101.149 83.9356 111.528 94.3632 124.329 94.3632C137.13 94.3632 147.509 83.9356 147.509 71.0737Z" fill="black"/>
</svg>
