<svg width="152" height="117" viewBox="0 0 152 117" fill="none" xmlns="http://www.w3.org/2000/svg">
<g id="Group 4304">
<g id="Group">
<path id="Vector" d="M38.793 53.4276L75.5096 116.55L113.068 53.3929L38.793 53.4276Z" fill="black"/>
<path id="Vector_2" d="M6.20459 44.0796L28.1504 52.0732L53.4316 94.5277L6.20459 44.0796Z" fill="black"/>
<path id="Vector_3" d="M0 33.9434L26.6897 43.4823L23.3648 6.62201L0 33.9434Z" fill="black"/>
<path id="Vector_4" d="M31.1277 1.86823L34.5952 40.1071L67.1974 13.6746L31.1277 1.86823Z" fill="black"/>
<path id="Vector_5" d="M54.2976 0H97.1389L76.226 7.71931L54.2976 0Z" fill="black"/>
<path id="Vector_6" d="M84.9277 13.9594L116.97 40.2148L120.674 1.86823L84.9277 13.9594Z" fill="black"/>
<path id="Vector_7" d="M128.385 6.44836L125.053 42.378L152 33.367L128.385 6.44836Z" fill="black"/>
<path id="Vector_8" d="M122.016 53.1671L143.121 45.7985L98.2239 94.2534L122.016 53.1671Z" fill="black"/>
<path id="Vector_9" d="M108.707 45.7255H42.73L75.0992 18.2617L108.707 45.7255Z" fill="black"/>
</g>
</g>
</svg>
