<svg width="151" height="132" viewBox="0 0 151 132" fill="none" xmlns="http://www.w3.org/2000/svg">
<g id="Group">
<path id="Vector" d="M71.9011 110.447C69.8024 114.827 66.9794 118.606 63.4427 121.782C59.9008 124.963 55.7298 127.389 50.935 129.069C46.1349 130.749 41.0387 131.59 35.636 131.59C31.4332 131.59 27.2041 130.961 22.9485 129.703C18.6876 128.445 14.8496 126.527 11.4293 123.948C8.00898 121.37 5.24946 118.252 3.15074 114.595C1.05202 110.938 0 106.89 0 102.451C0 98.7361 0.777105 95.3171 2.3419 92.1992C3.9014 89.0814 5.94197 86.1749 8.45833 83.4746C10.98 80.7742 13.7659 78.2905 16.8268 76.0076C19.8877 73.73 22.9168 71.5739 25.9142 69.5288C22.7952 67.3675 19.7661 65.0951 16.8268 62.6907C13.8875 60.2915 11.276 57.6863 8.99756 54.8644C6.71909 52.0478 4.88469 48.8982 3.51021 45.421C2.13045 41.9438 1.4379 38.0439 1.4379 33.7265C1.4379 28.9334 2.45821 24.4945 4.49878 20.4149C6.53935 16.3405 9.23545 12.7999 12.5976 9.79836C15.9545 6.80206 19.7978 4.43461 24.1168 2.69073C28.4358 0.952139 32.813 0.0802002 37.2536 0.0802002C42.889 0.0802002 47.9323 0.830596 52.3729 2.33139C56.8082 3.83218 60.5616 5.84028 63.6225 8.35569C66.6833 10.8764 69.0517 13.841 70.7328 17.26C72.4138 20.6791 73.2544 24.3095 73.2544 28.1461C73.2544 31.7448 72.5037 35.074 71.0024 38.1284C69.501 41.1882 67.4921 44.0629 64.9758 46.7633C62.4594 49.4636 59.5466 51.9791 56.2479 54.3201C52.9491 56.6611 49.5605 58.907 46.082 61.0684C48.6037 62.5057 51.5376 64.2179 54.8998 66.1943C58.2567 68.1707 61.4074 70.6016 64.3467 73.4816C67.286 76.3616 69.8024 79.6592 71.9064 83.3741C74.0051 87.0944 75.0571 91.3537 75.0571 96.1467C75.0571 101.304 74.0051 106.071 71.9064 110.447H71.9011ZM58.0453 94.8837C56.5439 91.6444 54.4452 88.6163 51.7491 85.7997C49.0477 82.9831 45.7807 80.3726 41.9427 77.9734C38.0995 75.5743 33.7805 73.2385 28.9856 70.9556C26.2261 72.5145 23.8578 74.5279 21.8754 76.9799C19.8982 79.4372 18.2436 82.0794 16.9272 84.8961C15.6056 87.718 14.6171 90.561 13.9563 93.4411C13.2954 96.3211 12.9677 99.0162 12.9677 101.537C12.9677 110.172 15.3677 116.888 20.1678 121.687C24.9679 126.485 31.0844 128.884 38.5224 128.884C42.4819 128.884 45.8706 128.197 48.6935 126.818C51.5112 125.439 53.7632 123.668 55.4443 121.512C57.1254 119.351 58.3519 116.925 59.1343 114.225C59.9114 111.525 60.3026 108.798 60.3026 106.039C60.3026 101.843 59.5519 98.1231 58.0506 94.8837H58.0453ZM59.4832 18.5125C58.4629 15.4527 56.9616 12.7841 54.9844 10.5065C53.0073 8.22887 50.5438 6.43214 47.6045 5.11102C44.6652 3.79519 41.3348 3.13463 37.6184 3.13463C34.6157 3.13463 31.7399 3.61552 28.9803 4.57201C26.2208 5.53378 23.7626 6.91303 21.6004 8.70975C19.4383 10.5065 17.7308 12.7312 16.4726 15.3682C15.2144 18.0051 14.5853 21.0649 14.5853 24.542C14.5853 29.2188 15.5157 33.3566 17.3766 36.9553C19.2374 40.554 21.6057 43.7617 24.4869 46.5783C27.368 49.4002 30.4553 51.8258 33.754 53.8656C37.0527 55.9054 40.1453 57.7656 43.0212 59.4407C49.1376 55.9636 53.6681 51.6778 56.6074 46.5783C59.5466 41.4841 61.0163 35.333 61.0163 28.1408C61.0163 24.7851 60.5035 21.5722 59.4885 18.5177L59.4832 18.5125Z" fill="#E2C573"/>
<path id="Vector_2" d="M123.819 106.71V81.0807H104.862V106.71C104.862 122.046 103.588 129.122 81.0203 130.485V130.76H147.756V130.485C125.051 129.122 123.819 122.284 123.819 106.71ZM104.862 28.4473V48.4808H123.819V0.000976562C113.019 4.49278 98.677 7.93826 84.6732 10.126V15.569L94.0619 16.5995C103.017 17.4609 104.862 17.9471 104.862 28.4473Z" fill="black"/>
<g id="Group_2">
<path id="Vector_3" d="M92.0953 58.331C91.5138 56.1538 90.5834 53.9555 87.4802 53.9555C85.0167 53.9555 84.0546 55.7469 84.0546 57.4961C84.0546 59.6997 85.4714 60.8464 88.2521 62.2785C92.1535 64.2813 93.972 65.8403 93.972 69.011C93.972 72.5674 90.9164 75.2519 86.5551 75.2519C84.5409 75.2519 82.7911 74.6865 81.3955 74.1686C81.1418 73.2702 80.7136 70.8024 80.481 69.0532L81.5541 68.7837C82.2149 70.9821 83.748 73.9942 87.1578 73.9942C89.4785 73.9942 90.8953 72.4089 90.8953 70.2634C90.8953 67.8272 89.5684 66.7809 86.6714 65.2061C83.1982 63.3249 81.1894 61.7237 81.1894 58.5741C81.1894 55.4246 83.6898 52.7506 88.1727 52.7506C90.1076 52.7506 91.9103 53.2474 92.6134 53.3742C92.7455 54.5738 92.8988 55.9689 93.1632 58.1091L92.0953 58.3257V58.331Z" fill="black"/>
<path id="Vector_4" d="M96.4832 74.7552V73.7934C98.5184 73.5873 98.7457 73.4288 98.7457 71.1564V64.3976C98.7457 62.3155 98.6347 62.1834 96.7211 61.8716V61.0208C98.5079 60.7355 100.163 60.3021 101.659 59.7208V71.1564C101.659 73.4076 101.87 73.5873 103.985 73.7934V74.7552H96.4832ZM100.009 56.6981C99.0206 56.6981 98.1378 55.8262 98.1378 54.8327C98.1378 53.7177 99.0206 52.9144 100.041 52.9144C101.061 52.9144 101.854 53.7177 101.854 54.8327C101.854 55.8262 101.04 56.6981 100.004 56.6981H100.009Z" fill="black"/>
<path id="Vector_5" d="M115.144 74.7551V73.7933C116.973 73.5925 117.153 73.3811 117.153 71.1194V65.6182C117.153 63.293 116.265 61.8874 114.261 61.8874C112.993 61.8874 111.798 62.6008 110.799 63.478V71.2779C110.799 73.5185 110.984 73.5925 112.834 73.7933V74.7551H105.581V73.7933C107.685 73.5502 107.886 73.434 107.886 71.2515V64.4134C107.886 62.289 107.648 62.1886 105.919 61.8927V60.9943C107.595 60.7354 109.34 60.302 110.815 59.6785C110.809 60.3866 110.804 61.4646 110.804 62.252C111.465 61.787 112.189 61.2902 113.035 60.7459C113.976 60.1488 114.795 59.7736 115.757 59.7736C118.417 59.7736 120.077 61.7288 120.077 64.9735V71.262C120.077 73.4815 120.277 73.5766 122.138 73.7827V74.7445H115.15L115.144 74.7551Z" fill="black"/>
<path id="Vector_6" d="M136.618 71.7325C135.148 73.7036 132.928 75.1516 130.93 75.1516C126.653 75.1516 124.131 71.7325 124.131 68.1655C124.131 65.5761 125.284 63.3672 127.483 61.7026C129.317 60.2969 131.321 59.7843 132.653 59.7843C134.102 59.7843 135.191 60.2282 135.703 60.6615C136.169 61.0209 136.253 61.2798 136.253 61.6709C136.248 62.49 135.402 63.2298 135.006 63.2298C134.826 63.2298 134.678 63.1558 134.355 62.8916C133.256 61.9139 132.13 61.4383 130.988 61.4383C128.963 61.4383 127.102 63.1875 127.102 66.6541C127.076 71.2252 130.237 72.7313 132.066 72.7313C133.451 72.7313 134.556 72.3666 136.021 70.9874L136.602 71.7325H136.618Z" fill="black"/>
<path id="Vector_7" d="M150.569 71.8593C148.465 74.5703 146.086 75.1516 144.965 75.1516C140.847 75.1516 138.384 71.8435 138.384 68.0122C138.384 65.7452 139.235 63.6261 140.599 62.1835C142.01 60.6404 143.839 59.7843 145.578 59.7843C148.528 59.7843 150.727 62.305 150.722 64.9684C150.696 65.6131 150.606 65.9566 150.098 66.0834C149.443 66.2208 145.124 66.5062 141.307 66.6383C141.249 70.9134 143.829 72.726 146.186 72.726C147.534 72.726 148.798 72.1817 150.019 71.072L150.564 71.8593H150.569ZM144.807 61.0579C143.316 61.0579 141.894 62.5058 141.476 65.1798C143.242 65.1745 144.992 65.1692 146.847 65.0794C147.418 65.0741 147.619 64.9261 147.619 64.4188C147.651 62.6802 146.562 61.0579 144.807 61.0579Z" fill="black"/>
</g>
</g>
</svg>
